<svg width="170" height="122" viewBox="0 0 170 122" fill="none" xmlns="http://www.w3.org/2000/svg">
<path d="M66.0877 84.41L26.2319 59.5836L66.0877 121.65L170 0L66.0877 84.41Z" fill="#EE3465"/>
<path d="M22.8259 25.6127C28.7978 25.6127 33.7302 27.1831 37.623 30.3239C41.56 33.4647 44.1036 37.7114 45.2537 43.0639H33.2436C32.3588 40.8964 30.9875 39.1933 29.1296 37.9547C27.3159 36.716 25.1483 36.0967 22.6269 36.0967C19.3091 36.0967 16.6328 37.3132 14.598 39.7462C12.5631 42.1792 11.5457 45.4306 11.5457 49.5003C11.5457 53.5701 12.5631 56.8214 14.598 59.2544C16.6328 61.6432 19.3091 62.8376 22.6269 62.8376C25.1483 62.8376 27.3159 62.2183 29.1296 60.9796C30.9875 59.741 32.3588 58.0601 33.2436 55.9367H45.2537C44.1036 61.2451 41.56 65.4917 37.623 68.6768C33.7302 71.8175 28.7978 73.3879 22.8259 73.3879C18.2696 73.3879 14.2662 72.3926 10.8158 70.402C7.36534 68.3671 4.68905 65.536 2.78689 61.9086C0.928962 58.2812 0 54.1451 0 49.5003C0 44.8555 0.928962 40.7194 2.78689 37.0921C4.68905 33.4647 7.36534 30.6557 10.8158 28.665C14.2662 26.6302 18.2696 25.6127 22.8259 25.6127Z" fill="white"/>
<path d="M86.7807 53.4816C86.7807 54.4106 86.6701 55.428 86.4489 56.5339H60.7698C60.9025 59.3208 61.6103 61.3335 62.8931 62.5721C64.176 63.7665 65.8127 64.3637 67.8033 64.3637C69.4843 64.3637 70.8778 63.9435 71.9837 63.103C73.0896 62.2625 73.8195 61.1787 74.1734 59.8516H86.1835C85.6969 62.4616 84.6352 64.8061 82.9985 66.8852C81.3618 68.9201 79.2827 70.5347 76.7612 71.7291C74.2397 72.8792 71.4307 73.4543 68.3342 73.4543C64.7068 73.4543 61.4776 72.7023 58.6464 71.1982C55.8595 69.65 53.6698 67.4381 52.0773 64.5628C50.4848 61.6874 49.6886 58.3255 49.6886 54.4769C49.6886 50.5841 50.4627 47.2222 52.011 44.391C53.6035 41.5157 55.8153 39.326 58.6464 37.8219C61.4776 36.2737 64.7068 35.4995 68.3342 35.4995C72.0058 35.4995 75.235 36.2516 78.0219 37.7556C80.8088 39.2596 82.9543 41.383 84.4583 44.1256C86.0066 46.824 86.7807 49.9427 86.7807 53.4816ZM75.3014 51.7564C75.3456 49.3234 74.6821 47.5097 73.3108 46.3153C71.9837 45.0767 70.3248 44.4574 68.3342 44.4574C66.2551 44.4574 64.5299 45.0767 63.1585 46.3153C61.7872 47.5539 61.0131 49.3676 60.8361 51.7564H75.3014Z" fill="white"/>
<path d="M104.042 42.9312C105.458 40.6752 107.271 38.8836 109.483 37.5565C111.739 36.2294 114.172 35.5659 116.782 35.5659V47.7088H113.531C110.523 47.7088 108.178 48.3502 106.497 49.633C104.861 50.9159 104.042 53.0835 104.042 56.1358V72.9898H92.6956V35.964H104.042V42.9312Z" fill="white"/>
<path d="M142.499 63.2357V72.9898H137.39C133.055 72.9898 129.671 71.9281 127.238 69.8048C124.849 67.6372 123.655 64.0762 123.655 59.1217V45.5191H118.678V35.964H123.655V26.8735H135.001V35.964H142.433V45.5191H135.001V59.3208C135.001 60.7806 135.289 61.798 135.864 62.3731C136.483 62.9482 137.501 63.2357 138.916 63.2357H142.499Z" fill="white"/>
</svg>
